<svg width="448" height="243" viewBox="0 0 448 243" fill="none" xmlns="http://www.w3.org/2000/svg">
<g clip-path="url(#clip0_342_465)">
<path d="M0 243H448.002V31.8851L224.449 0L0.0842938 32.3646C0.0842938 32.3646 0.556718 243 0 243Z" fill="#EBDEC3"/>
<path d="M149.987 71.8L144.911 93.292H144.479L140.123 73.6H135.659L131.303 93.292H130.871L125.795 71.8H122.375L128.567 97H133.463L137.675 78.028H138.107L142.319 97H147.215L153.407 71.8H149.987ZM160.709 78.82C156.209 78.82 152.177 82.276 152.177 87.856C152.177 93.472 156.209 97.18 160.745 97.18C164.021 97.18 167.117 95.236 168.485 91.96H165.173C164.309 93.364 162.797 94.264 160.745 94.264C157.649 94.264 155.561 92.176 155.273 88.828H168.881C169.241 82.024 165.029 78.82 160.709 78.82ZM160.673 81.484C163.373 81.484 165.173 83.428 165.605 86.2H155.417C155.993 83.32 158.009 81.484 160.673 81.484ZM173.617 71.44V97H176.749V71.44H173.617ZM182.102 71.44V97H185.234V71.44H182.102ZM191.309 84.436V87.172H204.269V84.436H191.309ZM225.994 90.664H222.79C221.962 92.788 220.162 94.228 217.786 94.228C214.546 94.228 212.314 91.528 212.314 88C212.314 84.472 214.546 81.772 217.786 81.772C220.234 81.772 222.106 83.32 222.862 85.588H226.102C225.454 81.556 221.566 78.82 217.786 78.82C213.286 78.82 209.146 82.672 209.146 88C209.146 93.328 213.286 97.18 217.786 97.18C221.53 97.18 225.166 94.552 225.994 90.664ZM239.283 78.82C236.547 78.82 235.071 80.224 234.387 81.016H233.883L233.271 79H231.183V97H234.351V86.38C234.351 83.068 236.619 81.772 238.923 81.772C239.391 81.772 240.039 81.844 240.399 81.916V78.82H239.283ZM257.133 92.392V86.164C257.133 80.944 254.361 78.82 250.581 78.82C246.405 78.82 244.065 81.412 243.741 83.896H246.837C246.837 83.896 247.305 81.664 250.473 81.664C253.317 81.664 254.181 83.428 254.289 85.66C250.149 86.164 243.273 86.632 243.273 91.924C243.273 95.056 245.757 97.18 249.357 97.18C251.661 97.18 253.497 96.316 254.613 94.84C255.117 96.352 256.161 97 257.817 97H259.077V94.624C257.709 94.624 257.133 94.12 257.133 92.392ZM246.261 92.032C246.261 89.404 250.005 88.828 254.253 88.396V90.268C254.109 95.128 246.261 95.884 246.261 92.032ZM270.249 75.004L271.617 72.772C271.077 72.304 270.105 71.62 268.449 71.62C265.317 71.62 263.625 73.96 263.625 77.236V79H260.961V81.52H263.625V97H266.649V81.52H270.969V79H266.649V77.524C266.649 75.148 267.621 74.5 268.809 74.5C269.493 74.5 269.889 74.716 270.249 75.004ZM283.926 93.832C283.602 94.084 283.206 94.336 282.486 94.336C281.262 94.336 280.182 93.58 280.182 91.276V81.628H284.502V79H280.146V73.6H277.482V76.84C277.482 78.316 276.474 79.324 275.07 79.324H273.954V81.664H277.086V91.564C277.086 94.84 278.994 97.18 282.126 97.18C283.782 97.18 284.754 96.496 285.294 96.028L283.926 93.832ZM296.175 78.82C291.675 78.82 287.643 82.276 287.643 87.856C287.643 93.472 291.675 97.18 296.211 97.18C299.487 97.18 302.583 95.236 303.951 91.96H300.639C299.775 93.364 298.263 94.264 296.211 94.264C293.115 94.264 291.027 92.176 290.739 88.828H304.347C304.707 82.024 300.495 78.82 296.175 78.82ZM296.139 81.484C298.839 81.484 300.639 83.428 301.071 86.2H290.883C291.459 83.32 293.475 81.484 296.139 81.484ZM322.22 71.44V81.7C321.068 80.008 319.304 78.82 316.784 78.82C312.212 78.82 308.468 82.672 308.468 88C308.468 93.328 312.212 97.18 316.784 97.18C319.124 97.18 320.816 96.172 321.932 94.696H322.508L323.192 97H325.28V71.44H322.22ZM311.636 88C311.636 84.112 314.336 81.772 317.036 81.772C319.412 81.772 322.22 83.572 322.22 88C322.22 92.428 319.412 94.228 317.036 94.228C314.336 94.228 311.636 91.888 311.636 88ZM149.059 131.22C147.727 132.552 146.395 132.948 145.135 132.948C142.615 132.948 139.879 130.932 139.879 126.036C143.767 125.928 148.231 125.64 149.203 125.424C149.347 125.388 149.383 125.136 149.383 124.56C149.347 121.932 147.259 119.412 143.983 119.412C142.291 119.412 140.455 120.132 138.907 121.752C137.395 123.336 136.495 125.46 136.495 127.944C136.495 131.868 139.051 135.432 143.479 135.432C144.667 135.432 147.259 134.568 149.383 131.652L149.059 131.22ZM145.819 124.416C145.819 124.812 145.603 124.884 145.171 124.92C143.983 125.064 141.643 125.064 139.951 125.028C140.239 121.788 141.463 120.384 142.975 120.384C144.775 120.384 145.819 122.364 145.819 124.416ZM166.68 135V134.496C165.024 134.208 164.7 133.812 163.728 132.192L159.984 126.144C161.028 124.596 161.964 123.3 162.432 122.616C163.584 121.032 163.908 120.744 166.032 120.348V119.844H160.164V120.348C162.144 120.744 162.18 121.032 161.604 122.004C161.028 123.012 160.38 124.128 159.516 125.424L157.464 121.86C156.996 120.996 157.068 120.708 158.616 120.348V119.844H151.344V120.348C152.964 120.6 153.252 120.96 154.368 122.868L157.392 128.052C156.456 129.456 155.628 130.752 154.656 132.084C153.504 133.776 153.036 134.208 151.056 134.496V135H157.104V134.496C155.124 134.1 154.944 133.848 155.664 132.48C156.348 131.184 157.068 130.068 157.86 128.772L160.2 132.84C160.812 133.92 160.74 134.136 159.12 134.496V135H166.68ZM167.731 121.068C169.387 121.572 169.675 121.716 169.675 124.164V140.472C169.675 143.172 169.459 143.316 167.443 143.784V144.288H175.795V143.784C173.419 143.316 173.167 143.172 173.167 140.292V135C173.671 135.216 174.499 135.432 175.399 135.432C179.611 134.532 183.823 131.076 183.823 126.108C183.823 122.796 181.699 119.412 177.883 119.412C177.343 119.412 176.623 119.628 175.723 120.168C175.183 120.528 173.815 121.356 173.167 121.752C173.167 120.78 173.203 119.844 173.239 119.052C171.511 119.772 169.675 120.384 167.731 120.636V121.068ZM173.167 122.508C173.959 121.932 174.895 121.572 176.011 121.572C178.171 121.572 180.223 123.696 180.223 128.016C180.223 131.4 179.359 133.992 176.551 133.992C175.327 133.992 173.923 133.524 173.167 132.804V122.508ZM199.476 131.22C198.144 132.552 196.812 132.948 195.552 132.948C193.032 132.948 190.296 130.932 190.296 126.036C194.184 125.928 198.648 125.64 199.62 125.424C199.764 125.388 199.8 125.136 199.8 124.56C199.764 121.932 197.676 119.412 194.4 119.412C192.708 119.412 190.872 120.132 189.324 121.752C187.812 123.336 186.912 125.46 186.912 127.944C186.912 131.868 189.468 135.432 193.896 135.432C195.084 135.432 197.676 134.568 199.8 131.652L199.476 131.22ZM196.236 124.416C196.236 124.812 196.02 124.884 195.588 124.92C194.4 125.064 192.06 125.064 190.368 125.028C190.656 121.788 191.88 120.384 193.392 120.384C195.192 120.384 196.236 122.364 196.236 124.416ZM210.382 134.496C208.186 134.1 207.934 133.992 207.934 131.4V124.236C208.654 122.796 209.482 122.328 210.094 122.328C210.742 122.328 211.102 122.76 211.714 123.336C211.966 123.588 212.182 123.66 212.614 123.444C213.334 123.12 214.09 121.968 214.09 121.104C214.09 120.132 213.262 119.412 212.146 119.412C210.418 119.412 208.798 121.536 207.934 123.156C207.934 121.824 208.006 119.916 208.042 119.34C206.35 120.06 204.514 120.528 202.75 120.78V121.212C204.262 121.644 204.442 121.86 204.442 123.876V131.4C204.442 134.028 204.298 134.172 202.39 134.496V135H210.382V134.496ZM221.692 113.76C221.692 112.572 220.864 111.744 219.712 111.744C218.632 111.744 217.732 112.572 217.732 113.76C217.732 114.912 218.632 115.776 219.676 115.776C220.864 115.776 221.692 114.912 221.692 113.76ZM223.852 135V134.496C221.836 134.1 221.656 133.92 221.656 131.256V123.696C221.656 122.22 221.692 120.132 221.728 119.412C220.108 120.024 218.308 120.456 216.436 120.744V121.176C218.056 121.644 218.164 121.788 218.164 124.02V131.256C218.164 133.992 218.056 134.172 216.04 134.496V135H223.852ZM238.783 131.22C237.451 132.552 236.119 132.948 234.859 132.948C232.339 132.948 229.603 130.932 229.603 126.036C233.491 125.928 237.955 125.64 238.927 125.424C239.071 125.388 239.107 125.136 239.107 124.56C239.071 121.932 236.983 119.412 233.707 119.412C232.015 119.412 230.179 120.132 228.631 121.752C227.119 123.336 226.219 125.46 226.219 127.944C226.219 131.868 228.775 135.432 233.203 135.432C234.391 135.432 236.983 134.568 239.107 131.652L238.783 131.22ZM235.543 124.416C235.543 124.812 235.327 124.884 234.895 124.92C233.707 125.064 231.367 125.064 229.675 125.028C229.963 121.788 231.187 120.384 232.699 120.384C234.499 120.384 235.543 122.364 235.543 124.416ZM258.401 135V134.496C256.709 134.172 256.565 133.992 256.565 131.472V124.848C256.565 121.608 255.125 119.412 252.173 119.412C251.201 119.412 250.553 119.772 249.473 120.492C248.717 120.96 248.033 121.5 247.241 122.04C247.205 121.032 247.277 120.096 247.313 119.34C245.837 119.952 243.821 120.528 242.021 120.78V121.212C243.533 121.68 243.749 121.896 243.749 123.84V131.256C243.749 133.884 243.569 134.1 241.553 134.496V135H249.257V134.496C247.421 134.1 247.241 134.028 247.241 131.472V122.832C248.177 122.004 249.221 121.572 250.373 121.572C252.065 121.572 253.073 122.796 253.073 125.244V130.968C253.073 133.92 252.965 134.244 251.057 134.496V135H258.401ZM273.612 131.292C272.244 132.588 271.128 132.948 269.58 132.948C267.528 132.948 264.396 131.076 264.396 126.18C264.432 122.004 266.016 120.924 267.78 120.924C269.004 120.924 270.336 121.392 271.524 122.508C271.884 122.832 272.028 122.868 272.172 122.868C272.712 122.868 273.54 121.968 273.54 121.212C273.54 120.852 273.324 120.6 272.964 120.276C272.28 119.736 271.092 119.412 270.012 119.412C268.716 119.412 266.592 119.988 264.54 121.536C262.236 123.3 261.084 125.532 261.084 128.196C261.084 131.868 263.604 135.432 268.104 135.432C270.192 135.432 272.424 133.776 273.936 131.688L273.612 131.292ZM288.813 131.22C287.481 132.552 286.149 132.948 284.889 132.948C282.369 132.948 279.633 130.932 279.633 126.036C283.521 125.928 287.985 125.64 288.957 125.424C289.101 125.388 289.137 125.136 289.137 124.56C289.101 121.932 287.013 119.412 283.737 119.412C282.045 119.412 280.209 120.132 278.661 121.752C277.149 123.336 276.249 125.46 276.249 127.944C276.249 131.868 278.805 135.432 283.233 135.432C284.421 135.432 287.013 134.568 289.137 131.652L288.813 131.22ZM285.573 124.416C285.573 124.812 285.357 124.884 284.925 124.92C283.737 125.064 281.397 125.064 279.705 125.028C279.993 121.788 281.217 120.384 282.729 120.384C284.529 120.384 285.573 122.364 285.573 124.416ZM301.693 123.588C301.585 122.976 301.297 120.852 301.261 119.808C300.613 119.772 299.389 119.412 297.949 119.412C294.673 119.448 292.549 121.356 292.549 124.02C292.549 126.648 294.961 127.944 296.617 128.916C298.741 130.14 299.353 131.076 299.353 132.408C299.353 133.74 298.525 134.712 297.085 134.712C294.817 134.712 293.305 132.84 292.621 130.572L292.153 130.68C292.297 131.904 292.621 134.064 292.729 134.712C293.449 134.964 294.853 135.432 296.581 135.432C299.245 135.432 302.269 133.776 302.269 130.536C302.269 128.088 300.541 126.972 297.985 125.604C296.437 124.74 295.285 124.056 295.285 122.436C295.285 120.996 296.185 120.168 297.445 120.168C299.281 120.168 300.505 121.5 301.189 123.732L301.693 123.588ZM84.5546 151.004L85.9226 148.772C85.3826 148.304 84.4106 147.62 82.7546 147.62C79.6226 147.62 77.9306 149.96 77.9306 153.236V155H75.2666V157.52H77.9306V173H80.9546V157.52H85.2746V155H80.9546V153.524C80.9546 151.148 81.9266 150.5 83.1146 150.5C83.7986 150.5 84.1946 150.716 84.5546 151.004ZM96.4434 173.18C100.979 173.18 105.083 169.328 105.083 164C105.083 158.672 100.943 154.82 96.4434 154.82C91.9434 154.82 87.8034 158.672 87.8034 164C87.8034 169.328 91.9434 173.18 96.4434 173.18ZM96.4434 170.228C93.2034 170.228 90.9714 167.528 90.9714 164C90.9714 160.472 93.2034 157.772 96.4434 157.772C99.6834 157.772 101.915 160.472 101.915 164C101.915 167.528 99.7194 170.228 96.4434 170.228ZM117.835 154.82C115.099 154.82 113.623 156.224 112.939 157.016H112.435L111.823 155H109.735V173H112.903V162.38C112.903 159.068 115.171 157.772 117.475 157.772C117.943 157.772 118.591 157.844 118.951 157.916V154.82H117.835ZM146.35 168.392V162.164C146.35 156.944 143.578 154.82 139.798 154.82C135.622 154.82 133.282 157.412 132.958 159.896H136.054C136.054 159.896 136.522 157.664 139.69 157.664C142.534 157.664 143.398 159.428 143.506 161.66C139.366 162.164 132.49 162.632 132.49 167.924C132.49 171.056 134.974 173.18 138.574 173.18C140.878 173.18 142.714 172.316 143.83 170.84C144.334 172.352 145.378 173 147.034 173H148.294V170.624C146.926 170.624 146.35 170.12 146.35 168.392ZM135.478 168.032C135.478 165.404 139.222 164.828 143.47 164.396V166.268C143.326 171.128 135.478 171.884 135.478 168.032ZM173.522 155V164.54C173.522 168.572 171.866 170.444 169.13 170.444C165.422 170.444 164.774 166.988 164.774 163.676V155H161.606V164.756C161.606 169.76 163.874 173.18 168.518 173.18C171.218 173.18 172.766 171.992 173.558 171.092H174.026L174.602 173H176.69V155H173.522ZM190.68 154.82C187.692 154.82 186.072 156.26 185.388 157.052H184.956L184.308 155H182.22V173H185.388V162.74C185.388 159.572 187.548 157.556 190.248 157.556C193.812 157.556 194.352 161.12 194.352 164.324V173H197.52V163.244C197.52 158.24 195.252 154.82 190.68 154.82ZM204.788 151.868C206.048 151.868 207.092 150.824 207.092 149.564C207.092 148.268 206.048 147.26 204.788 147.26C203.492 147.26 202.448 148.268 202.448 149.564C202.448 150.824 203.492 151.868 204.788 151.868ZM206.336 155H203.168V173H206.336V155ZM226.062 155L225.378 157.268H224.838C223.65 155.792 221.994 154.82 219.654 154.82C215.082 154.82 211.338 158.564 211.338 164C211.338 169.436 215.082 173.18 219.654 173.18C222.174 173.18 223.938 172.064 225.09 170.372V180.2H228.15V155H226.062ZM219.906 170.228C217.206 170.228 214.506 167.888 214.506 164C214.506 160.112 217.206 157.772 219.906 157.772C222.282 157.772 225.09 159.572 225.09 164C225.09 168.428 222.282 170.228 219.906 170.228ZM244.413 155V164.54C244.413 168.572 242.757 170.444 240.021 170.444C236.313 170.444 235.665 166.988 235.665 163.676V155H232.497V164.756C232.497 169.76 234.765 173.18 239.409 173.18C242.109 173.18 243.657 171.992 244.449 171.092H244.917L245.493 173H247.581V155H244.413ZM260.993 154.82C256.493 154.82 252.461 158.276 252.461 163.856C252.461 169.472 256.493 173.18 261.029 173.18C264.305 173.18 267.401 171.236 268.769 167.96H265.457C264.593 169.364 263.081 170.264 261.029 170.264C257.933 170.264 255.845 168.176 255.557 164.828H269.165C269.525 158.024 265.313 154.82 260.993 154.82ZM260.957 157.484C263.657 157.484 265.457 159.428 265.889 162.2H255.701C256.277 159.32 258.293 157.484 260.957 157.484ZM292.026 154.82C287.526 154.82 283.494 158.276 283.494 163.856C283.494 169.472 287.526 173.18 292.062 173.18C295.338 173.18 298.434 171.236 299.802 167.96H296.49C295.626 169.364 294.114 170.264 292.062 170.264C288.966 170.264 286.878 168.176 286.59 164.828H300.198C300.558 158.024 296.346 154.82 292.026 154.82ZM291.99 157.484C294.69 157.484 296.49 159.428 296.922 162.2H286.734C287.31 159.32 289.326 157.484 291.99 157.484ZM315.982 155L311.302 170.408H310.87L306.19 155H302.878L308.71 173H313.462L319.294 155H315.982ZM330.407 154.82C325.907 154.82 321.875 158.276 321.875 163.856C321.875 169.472 325.907 173.18 330.443 173.18C333.719 173.18 336.815 171.236 338.183 167.96H334.871C334.007 169.364 332.495 170.264 330.443 170.264C327.347 170.264 325.259 168.176 324.971 164.828H338.579C338.939 158.024 334.727 154.82 330.407 154.82ZM330.371 157.484C333.071 157.484 334.871 159.428 335.303 162.2H325.115C325.691 159.32 327.707 157.484 330.371 157.484ZM351.74 154.82C348.752 154.82 347.132 156.26 346.448 157.052H346.016L345.368 155H343.28V173H346.448V162.74C346.448 159.572 348.608 157.556 351.308 157.556C354.872 157.556 355.412 161.12 355.412 164.324V173H358.58V163.244C358.58 158.24 356.312 154.82 351.74 154.82ZM372.021 169.832C371.697 170.084 371.301 170.336 370.581 170.336C369.357 170.336 368.277 169.58 368.277 167.276V157.628H372.597V155H368.241V149.6H365.577V152.84C365.577 154.316 364.569 155.324 363.165 155.324H362.049V157.664H365.181V167.564C365.181 170.84 367.089 173.18 370.221 173.18C371.877 173.18 372.849 172.496 373.389 172.028L372.021 169.832Z" fill="black"/>
</g>
<defs>
<clipPath id="clip0_342_465">
<rect width="448" height="243" fill="white"/>
</clipPath>
</defs>
</svg>
