<svg width="83" height="100" viewBox="0 0 83 100" fill="none" xmlns="http://www.w3.org/2000/svg">
<g clip-path="url(#clip0_341_173)">
<path d="M81 99.57H1.52C1.32039 99.57 1.12274 99.5307 0.93832 99.4543C0.753905 99.3779 0.586343 99.266 0.445198 99.1248C0.304053 98.9837 0.192091 98.8161 0.115704 98.6317C0.0393164 98.4473 0 98.2496 0 98.05V18.57C0 18.3704 0.0393164 18.1727 0.115704 17.9883C0.192091 17.8039 0.304053 17.6363 0.445198 17.4952C0.586343 17.3541 0.753905 17.2421 0.93832 17.1657C1.12274 17.0893 1.32039 17.05 1.52 17.05H23.99C25.9598 17.05 27.9104 16.662 29.7303 15.9082C31.5501 15.1544 33.2037 14.0495 34.5966 12.6566C35.9895 11.2637 37.0944 9.61014 37.8482 7.79025C38.602 5.97037 38.99 4.01983 38.99 2.05V0H43.55V2.06C43.55 6.03825 45.1303 9.85356 47.9434 12.6666C50.7564 15.4796 54.5718 17.06 58.55 17.06H81.02C81.4231 17.06 81.8097 17.2201 82.0948 17.5052C82.3799 17.7903 82.54 18.1769 82.54 18.58V98.06C82.5387 98.2605 82.4977 98.4587 82.4195 98.6433C82.3413 98.8278 82.2273 98.9951 82.0842 99.1355C81.9411 99.2758 81.7716 99.3865 81.5855 99.461C81.3994 99.5356 81.2004 99.5726 81 99.57ZM4.56 95H77.95V21.62H58.53C54.9801 21.6154 51.4982 20.6463 48.4563 18.8163C45.4145 16.9863 42.9271 14.3641 41.26 11.23C39.5929 14.3641 37.1055 16.9863 34.0636 18.8163C31.0218 20.6463 27.5399 21.6154 23.99 21.62H4.56V95Z" fill="white"/>
<path d="M35.65 34.68C37.48 34.68 40.65 36.16 42.27 37.1L44.34 32.4401C42.5028 31.9996 40.6193 31.7814 38.73 31.79C36.6756 31.7488 34.6341 32.1246 32.729 32.8946C30.8239 33.6646 29.0946 34.8129 27.6459 36.2701C26.1971 37.7273 25.0588 39.4632 24.2998 41.3727C23.5408 43.2823 23.1769 45.3259 23.23 47.38V49.5L19.15 52.28V52.68H23.23V71.02L19.81 73.7301V74.0901H34.7V73.7301L29.5 70.7301V52.68H33.72L34.25 52.27L37.4 49.8001V49.43H29.5V44.53C29.5 37.62 33.28 34.68 35.65 34.68Z" fill="white"/>
<path d="M61.3 76.87C59.7 77.87 56.5 79.3 54.67 79.3C52.31 79.3 48.52 76.4 48.52 69.48V56.42V52.76H58.09L60.28 49.39H48.53V44.78L44.95 47.58L38.87 52.34V52.76H42.24V66.68C42.191 68.7304 42.5577 70.7695 43.318 72.6743C44.0783 74.5791 45.2165 76.3102 46.664 77.7633C48.1114 79.2163 49.8381 80.3612 51.74 81.1289C53.6418 81.8965 55.6795 82.2711 57.73 82.23C59.619 82.2343 61.502 82.0162 63.34 81.58L61.3 76.87Z" fill="white"/>
</g>
<defs>
<clipPath id="clip0_341_173">
<rect width="82.52" height="99.57" fill="white"/>
</clipPath>
</defs>
</svg>
